<svg width="54" height="21" viewBox="0 0 54 21" xmlns="http://www.w3.org/2000/svg"><title>618</title><path d="M5 18.5a2.5 2.5 0 1 0-5 0 2.5 2.5 0 0 0 5 0m11.12-8.03c.397.221.725.51.976.866.255.357.443.759.57 1.212.127.453.19.92.19 1.4 0 .463-.069.916-.205 1.36-.137.44-.34.837-.613 1.181a3.174 3.174 0 0 1-.979.838c-.379.212-.82.318-1.327.318-.525 0-.991-.106-1.4-.318a3.088 3.088 0 0 1-1.034-.852 3.738 3.738 0 0 1-.643-1.212 4.466 4.466 0 0 1-.218-1.371c0-.501.067-.978.203-1.43.137-.451.34-.853.612-1.198a2.919 2.919 0 0 1 1.037-.825c.418-.2.9-.303 1.443-.303.527 0 .988.111 1.388.333M8.84 3.423a10.85 10.85 0 0 0-1.4 3.392A16.37 16.37 0 0 0 7 10.571c0 1.29.118 2.556.351 3.798.234 1.242.652 2.352 1.255 3.336a7.048 7.048 0 0 0 2.422 2.381c1.01.606 2.285.91 3.822.91 1.07 0 2.043-.187 2.92-.565a6.809 6.809 0 0 0 2.26-1.557 6.958 6.958 0 0 0 1.458-2.34A8.11 8.11 0 0 0 22 13.631a7.76 7.76 0 0 0-.382-2.397 5.864 5.864 0 0 0-1.194-2.109 6.453 6.453 0 0 0-2.13-1.514 6.214 6.214 0 0 0-2.568-.565c-.994 0-1.867.175-2.628.52-.757.347-1.418.926-1.982 1.733l-.06-.057c.02-.558.096-1.194.233-1.907.136-.712.351-1.38.642-2.008a4.719 4.719 0 0 1 1.182-1.586c.497-.435 1.113-.651 1.852-.651.722 0 1.325.252 1.81.753.488.5.797 1.086.933 1.76h3.94c-.115-.905-.36-1.703-.73-2.396a5.668 5.668 0 0 0-1.427-1.75A6.368 6.368 0 0 0 17.475.376 7.811 7.811 0 0 0 15.026 0c-1.46 0-2.695.318-3.707.954a7.819 7.819 0 0 0-2.48 2.469M31.092 0c-.12.8-.367 1.47-.744 2.01-.376.54-.836.975-1.38 1.306-.545.33-1.16.56-1.842.688A9.745 9.745 0 0 1 25 4.17v3.21h5.231V21h4.219V0h-3.358zm16.956 3.38c.39.193.69.432.909.72.218.289.366.594.44.91.076.317.115.611.115.881 0 .867-.284 1.527-.853 1.98-.57.45-1.278.678-2.13.678-.816 0-1.527-.228-2.131-.678-.608-.453-.91-1.113-.91-1.98 0-.462.08-.867.242-1.212.16-.348.384-.636.668-.867.283-.23.61-.408.979-.533a3.54 3.54 0 0 1 1.151-.19c.626 0 1.13.097 1.52.292m-.171 8.141a3.34 3.34 0 0 1 1.08.666 3.12 3.12 0 0 1 1.01 2.34c-.001.5-.086.963-.258 1.386-.171.423-.41.783-.723 1.082a3.416 3.416 0 0 1-1.08.693 3.624 3.624 0 0 1-1.348.246c-.476 0-.93-.084-1.364-.246a3.313 3.313 0 0 1-1.124-.693 3.41 3.41 0 0 1-.753-1.082 3.44 3.44 0 0 1-.283-1.417c0-1.04.34-1.832 1.02-2.381.683-.549 1.518-.825 2.504-.825.472 0 .911.078 1.319.231M41.969 1.386a5.523 5.523 0 0 0-1.55 1.734c-.398.692-.596 1.49-.596 2.396 0 1.002.245 1.878.738 2.628.493.75 1.222 1.26 2.19 1.53v.06c-1.196.288-2.12.864-2.772 1.73-.654.868-.979 1.948-.979 3.235 0 1.098.212 2.042.637 2.832a5.873 5.873 0 0 0 1.706 1.964c.711.52 1.514.9 2.414 1.14.9.24 1.832.36 2.8.36a9.65 9.65 0 0 0 2.727-.39 7.45 7.45 0 0 0 2.388-1.17 5.892 5.892 0 0 0 1.688-1.962c.428-.788.64-1.724.64-2.801 0-1.272-.322-2.346-.965-3.222-.646-.876-1.564-1.449-2.756-1.716v-.06c.965-.327 1.69-.867 2.172-1.617.484-.75.726-1.626.726-2.628 0-.5-.115-1.062-.343-1.688-.227-.627-.601-1.212-1.121-1.761-.522-.55-1.207-1.017-2.06-1.401C48.8.192 47.76 0 46.528 0c-.815 0-1.62.117-2.414.348a6.847 6.847 0 0 0-2.145 1.038" fill="#363636" fill-rule="evenodd"/></svg>