<svg width="286" height="477" viewBox="0 0 286 477" xmlns="http://www.w3.org/2000/svg"><title>Page 1</title><path d="M13.462 410.667c2.416-.235 4.156-2.148 3.888-4.27-.27-2.122-2.446-3.65-4.862-3.414-2.415.236-4.154 2.148-3.886 4.27.268 2.122 2.444 3.65 4.86 3.414m2.666 10.657a4.16 4.16 0 0 1 1.142-1.517 5.956 5.956 0 0 1 1.763-1.049 7.85 7.85 0 0 1 2.083-.5 8.905 8.905 0 0 1 2.249.057 6.112 6.112 0 0 1 1.954.643 4.247 4.247 0 0 1 1.452 1.268c.383.532.623 1.164.716 1.894.089.708-.004 1.346-.28 1.916a3.984 3.984 0 0 1-1.174 1.443 6.215 6.215 0 0 1-1.777.95 8.99 8.99 0 0 1-2.134.47 8.247 8.247 0 0 1-2.136-.073 6.085 6.085 0 0 1-1.933-.645 4.703 4.703 0 0 1-1.46-1.188c-.394-.479-.633-1.057-.718-1.738-.09-.706-.008-1.348.253-1.93m2.613 10.846c1.446.32 2.969.407 4.578.25a13.526 13.526 0 0 0 3.641-.876 9.227 9.227 0 0 0 3.06-1.925 8.53 8.53 0 0 0 1.98-3.094c.436-1.18.584-2.358.434-3.536-.17-1.336-.588-2.485-1.25-3.455-.667-.965-1.675-1.768-3.019-2.404l.077-.09c.866-.055 1.862-.05 2.99.026a15.24 15.24 0 0 1 3.214.56c1.013.298 1.903.747 2.655 1.35.757.603 1.197 1.398 1.323 2.393.122.968-.166 1.817-.858 2.545-.69.733-1.542 1.237-2.564 1.521l.672 5.299c1.381-.292 2.572-.744 3.582-1.345 1.008-.601 1.827-1.329 2.462-2.183a8.045 8.045 0 0 0 1.331-2.875c.257-1.057.312-2.176.162-3.349-.248-1.965-.95-3.574-2.106-4.84-1.156-1.264-2.569-2.253-4.24-2.96-1.674-.71-3.502-1.168-5.484-1.369a29.3 29.3 0 0 0-5.884-.024 36.35 36.35 0 0 0-5.813 1.046c-1.882.503-3.527 1.232-4.945 2.192-1.414.96-2.507 2.164-3.272 3.616-.765 1.449-1.016 3.21-.753 5.276.181 1.44.635 2.719 1.368 3.84a9.67 9.67 0 0 0 2.793 2.805c1.136.746 2.426 1.285 3.866 1.606m26.523 10.019c-1.213-.041-2.25-.27-3.116-.69-.866-.419-1.592-.961-2.176-1.631a7.06 7.06 0 0 1-1.333-2.333c-.31-.885-.511-1.81-.602-2.784l-4.777.468.874 6.908-20.277 1.982.707 5.57 31.262-3.056-.562-4.434zm-1.573 24.363c-.228.567-.546 1.019-.954 1.364a3.822 3.822 0 0 1-1.33.745 6.471 6.471 0 0 1-1.343.293c-1.34.13-2.41-.162-3.211-.879-.795-.719-1.272-1.663-1.42-2.84-.142-1.124.085-2.141.674-3.046.596-.908 1.563-1.422 2.904-1.554.714-.07 1.355-.02 1.917.15.566.169 1.05.436 1.458.791.406.357.737.783.996 1.274.26.49.424 1.01.493 1.559.11.864.05 1.575-.184 2.143m-12.62.995a4.468 4.468 0 0 1-.841 1.592c-.39.475-.876.865-1.458 1.173-.576.308-1.237.5-1.984.574a6.37 6.37 0 0 1-2.188-.144 5.04 5.04 0 0 1-1.8-.835 4.896 4.896 0 0 1-1.26-1.388 4.642 4.642 0 0 1-.618-1.825 4.798 4.798 0 0 1 .142-1.92c.18-.627.47-1.18.876-1.656a5.123 5.123 0 0 1 1.542-1.204c.621-.324 1.337-.527 2.14-.605 1.61-.157 2.894.19 3.862 1.05.968.858 1.54 1.97 1.714 3.33a4.656 4.656 0 0 1-.126 1.858m16.621-6.886a9.494 9.494 0 0 0-1.98-2.805 8.708 8.708 0 0 0-2.953-1.878c-1.142-.445-2.41-.598-3.81-.461-1.55.152-2.862.622-3.935 1.417-1.073.794-1.734 1.877-1.983 3.254l-.092.01c-.655-1.607-1.708-2.796-3.162-3.565-1.456-.773-3.182-1.059-5.172-.865-1.698.167-3.122.603-4.268 1.308-1.146.71-2.057 1.593-2.74 2.653a9.249 9.249 0 0 0-1.341 3.507 13.435 13.435 0 0 0-.067 3.92 12.26 12.26 0 0 0 1.08 3.707 10.3 10.3 0 0 0 2.228 3.12c.925.888 2.033 1.567 3.33 2.035 1.293.47 2.778.623 4.443.46 1.966-.192 3.572-.798 4.815-1.819 1.24-1.025 1.966-2.379 2.17-4.066l.092-.009c.675 1.284 1.637 2.204 2.882 2.755 1.244.554 2.64.757 4.191.605.773-.075 1.621-.32 2.55-.728.931-.409 1.77-1.014 2.527-1.814.76-.804 1.363-1.821 1.807-3.057.45-1.235.564-2.702.349-4.402a11.002 11.002 0 0 0-.96-3.282M264.531 7.326L246.253.522 234.73 24.407l-23.223-8.605.014-.03c-50.088-19.314-92.816-17.95-126.994 4.054C35.497 51.393 7.488 124.76 1.283 237.888c-4.493 81.942 4.225 154.05 4.6 157.078l33.351-3.172c-9.727-78.924-16.994-295.332 65.124-348.2 23.854-15.357 54.038-15.79 92.21-1.374l-.014.026 77.664 28.868 11.09-22.991c-18.315-6.82-29.057-23.633-20.777-40.797" fill="#353535" fill-rule="evenodd"/></svg>