<svg width="19" height="19" viewBox="0 0 19 19" xmlns="http://www.w3.org/2000/svg"><title>Pinterest-black</title><path d="M9.5 0a9.5 9.5 0 1 0-3.813 18.201c-.026-.662-.004-1.46.165-2.182.183-.77 1.222-5.176 1.222-5.176s-.303-.606-.303-1.503c0-1.408.817-2.46 1.832-2.46.864 0 1.282.65 1.282 1.427 0 .868-.554 2.168-.84 3.371-.237 1.009.506 1.83 1.5 1.83 1.8 0 3.012-2.312 3.012-5.05 0-2.082-1.402-3.64-3.953-3.64-2.88 0-4.676 2.148-4.676 4.547 0 .83.243 1.413.626 1.864.176.209.2.291.136.53l-.193.762c-.064.24-.259.328-.475.238-1.329-.541-1.946-1.995-1.946-3.63 0-2.697 2.275-5.935 6.789-5.935 3.627 0 6.015 2.627 6.015 5.443 0 3.727-2.072 6.51-5.127 6.51-1.025 0-1.99-.553-2.32-1.182 0 0-.552 2.188-.669 2.61-.2.732-.595 1.465-.956 2.035A9.5 9.5 0 0 0 19 9.5 9.5 9.5 0 0 0 9.5 0" fill="#363636" fill-rule="evenodd"/></svg>