<svg width="20" height="20" xmlns="http://www.w3.org/2000/svg">

 <g>
  <title>background</title>
  <rect fill="none" id="canvas_background" height="22" width="22" y="-1" x="-1"/>
 </g>
 <g>
  <title>Layer 1</title>
  <path fill="#363636" stroke="null" id="svg_2" d="m9.96287,0.037332c-5.501932,0 -9.96287,4.459725 -9.96287,9.962871c0,4.079012 2.45299,7.583515 5.963157,9.124574c-0.027916,-0.696288 -0.004855,-1.53054 0.173566,-2.287516c0.191368,-0.809167 1.281721,-5.428703 1.281721,-5.428703s-0.318407,-0.636005 -0.318407,-1.576258c0,-1.475921 0.855694,-2.578411 1.921367,-2.578411c0.906267,0 1.344027,0.68051 1.344027,1.494936c0,0.911122 -0.581387,2.273355 -0.879969,3.535251c-0.249223,1.057177 0.530004,1.919345 1.572616,1.919345c1.887382,0 3.158988,-2.424265 3.158988,-5.296808c0,-2.183538 -1.470661,-3.818055 -4.145363,-3.818055c-3.022239,0 -4.904767,2.253531 -4.904767,4.77085c0,0.868236 0.256101,1.479967 0.657044,1.954139c0.184086,0.217261 0.209979,0.305056 0.143223,0.554684c-0.047741,0.183276 -0.157383,0.625082 -0.202696,0.799862c-0.066352,0.252865 -0.270666,0.343087 -0.498852,0.249628c-1.391767,-0.568035 -2.040315,-2.092506 -2.040315,-3.806322c0,-2.829658 2.386638,-6.223305 7.120266,-6.223305c3.803086,0 6.306649,2.752787 6.306649,5.707461c0,3.907468 -2.172209,6.827348 -5.374893,6.827348c-1.075788,0 -2.087651,-0.581791 -2.433975,-1.241262c0,0 -0.578554,2.295607 -0.700739,2.738222c-0.211193,0.768709 -0.625082,1.536204 -1.002963,2.134178c0.896153,0.264598 1.842474,0.408629 2.823589,0.408629c5.501527,0 9.962061,-4.459725 9.962061,-9.962062c-0.000405,-5.503551 -4.461343,-9.963275 -9.962466,-9.963275z"/>
 </g>
</svg>