<svg width="20" height="20" xmlns="http://www.w3.org/2000/svg"><title>background</title><path fill="none" d="M-1-1h22v22H-1z"/><title>Layer 1</title><path fill="#363636" stroke="null" d="M9.963.037a9.963 9.963 0 1 0-4 19.087c-.028-.696-.005-1.53.174-2.287l1.281-5.428S7.1 10.773 7.1 9.832c0-1.476.856-2.578 1.921-2.578.907 0 1.344.68 1.344 1.495 0 .91-.581 2.273-.88 3.535-.249 1.057.53 1.92 1.573 1.92 1.887 0 3.16-2.425 3.16-5.297 0-2.184-1.472-3.818-4.146-3.818-3.023 0-4.905 2.253-4.905 4.77 0 .869.256 1.48.657 1.955.184.217.21.305.143.554-.048.184-.157.625-.202.8-.067.253-.271.343-.5.25-1.391-.568-2.04-2.093-2.04-3.807 0-2.83 2.387-6.223 7.12-6.223 3.804 0 6.307 2.753 6.307 5.708 0 3.907-2.172 6.827-5.375 6.827-1.075 0-2.087-.582-2.434-1.241 0 0-.578 2.295-.7 2.738-.212.769-.625 1.536-1.003 2.134a9.95 9.95 0 0 0 2.823.409c5.502 0 9.962-4.46 9.962-9.962 0-5.504-4.461-9.964-9.962-9.964z"/></svg>