<svg width="500" height="500" viewBox="0 0 500 500" xmlns="http://www.w3.org/2000/svg" xmlns:xlink="http://www.w3.org/1999/xlink"><title>Group</title><defs><path id="a" d="M0 0h100v100H0z"/><mask id="u" x="0" y="0" width="100" height="100" fill="#fff"><use xlink:href="#a"/></mask><path id="b" d="M100 0h100v100H100z"/><mask id="v" x="0" y="0" width="100" height="100" fill="#fff"><use xlink:href="#b"/></mask><path id="c" d="M300 0h100v100H300z"/><mask id="w" x="0" y="0" width="100" height="100" fill="#fff"><use xlink:href="#c"/></mask><path id="d" d="M400 0h100v100H400z"/><mask id="x" x="0" y="0" width="100" height="100" fill="#fff"><use xlink:href="#d"/></mask><path id="e" d="M100 100h100v100H100z"/><mask id="y" x="0" y="0" width="100" height="100" fill="#fff"><use xlink:href="#e"/></mask><path id="f" d="M200 100h100v100H200z"/><mask id="z" x="0" y="0" width="100" height="100" fill="#fff"><use xlink:href="#f"/></mask><path id="g" d="M400 100h100v100H400z"/><mask id="A" x="0" y="0" width="100" height="100" fill="#fff"><use xlink:href="#g"/></mask><path id="h" d="M300 100h100v100H300z"/><mask id="B" x="0" y="0" width="100" height="100" fill="#fff"><use xlink:href="#h"/></mask><path id="i" d="M400 200h100v100H400z"/><mask id="C" x="0" y="0" width="100" height="100" fill="#fff"><use xlink:href="#i"/></mask><path id="j" d="M300 100h100v100H300z"/><mask id="D" x="0" y="0" width="100" height="100" fill="#fff"><use xlink:href="#j"/></mask><path id="k" d="M100 200h100v100H100z"/><mask id="E" x="0" y="0" width="100" height="100" fill="#fff"><use xlink:href="#k"/></mask><path id="l" d="M300 200h100v100H300z"/><mask id="F" x="0" y="0" width="100" height="100" fill="#fff"><use xlink:href="#l"/></mask><path id="m" d="M0 100h100v100H0z"/><mask id="G" x="0" y="0" width="100" height="100" fill="#fff"><use xlink:href="#m"/></mask><path id="n" d="M0 200h100v100H0z"/><mask id="H" x="0" y="0" width="100" height="100" fill="#fff"><use xlink:href="#n"/></mask><path id="o" d="M0 0h100v100H0z"/><mask id="I" x="0" y="0" width="100" height="100" fill="#fff"><use xlink:href="#o"/></mask><path id="p" d="M200 200h100v100H200z"/><mask id="J" x="0" y="0" width="100" height="100" fill="#fff"><use xlink:href="#p"/></mask><path id="q" d="M100 300h100v100H100z"/><mask id="K" x="0" y="0" width="100" height="100" fill="#fff"><use xlink:href="#q"/></mask><path id="r" d="M300 300h100v100H300z"/><mask id="L" x="0" y="0" width="100" height="100" fill="#fff"><use xlink:href="#r"/></mask><path id="s" d="M200 400h100v100H200z"/><mask id="M" x="0" y="0" width="100" height="100" fill="#fff"><use xlink:href="#s"/></mask><path id="t" d="M300 100h100v100H300z"/><mask id="N" x="0" y="0" width="100" height="100" fill="#fff"><use xlink:href="#t"/></mask></defs><g stroke="#FFF" stroke-width="2" fill="#FF00A1" fill-rule="evenodd"><use mask="url(#u)" xlink:href="#a"/><use mask="url(#v)" xlink:href="#b"/><use mask="url(#w)" xlink:href="#c"/><use mask="url(#x)" xlink:href="#d"/><use mask="url(#y)" xlink:href="#e"/><use mask="url(#z)" xlink:href="#f"/><use mask="url(#A)" xlink:href="#g"/><use mask="url(#B)" xlink:href="#h"/><use mask="url(#C)" xlink:href="#i"/><use mask="url(#D)" xlink:href="#j"/><use mask="url(#E)" xlink:href="#k"/><use mask="url(#F)" xlink:href="#l"/><use mask="url(#G)" xlink:href="#m"/><use mask="url(#H)" xlink:href="#n"/><use mask="url(#I)" xlink:href="#o"/><use mask="url(#J)" xlink:href="#p"/><use mask="url(#K)" xlink:href="#q"/><use mask="url(#L)" xlink:href="#r"/><use mask="url(#M)" xlink:href="#s"/><use mask="url(#N)" xlink:href="#t"/></g></svg>