<svg width="21" height="20" viewBox="0 0 21 20" xmlns="http://www.w3.org/2000/svg"><title>LinkedIn-black</title><path d="M21 19.09h-4.641v-6.71c0-1.757-.726-2.956-2.323-2.956-1.22 0-1.9.81-2.216 1.589-.119.28-.1.67-.1 1.06v7.018H7.122s.06-11.888 0-12.969h4.598v2.035c.272-.89 1.74-2.16 4.086-2.16C18.715 5.997 21 7.863 21 11.88v7.21zM2.472 4.5h-.03C.961 4.5 0 3.508 0 2.252 0 .97.989 0 2.5 0c1.51 0 2.44.968 2.468 2.248 0 1.257-.958 2.252-2.496 2.252zM.53 6.122h4.093v12.969H.53V6.122z" fill="#363636" fill-rule="evenodd"/></svg>